<?xml version="1.0" encoding="UTF-8"?>
<svg width="88px" height="57px" viewBox="0 0 88 57" version="1.1" xmlns="http://www.w3.org/2000/svg" xmlns:xlink="http://www.w3.org/1999/xlink">
    <!-- Generator: Sketch 45.2 (43514) - http://www.bohemiancoding.com/sketch -->
    <title>Mail</title>
    <desc>Created with Sketch.</desc>
    <defs></defs>
    <g id="Page-1" stroke="none" stroke-width="1" fill="none" fill-rule="evenodd">
        <g id="Desktop-HD" transform="translate(-522.000000, -671.000000)" fill-rule="nonzero" fill="#374038">
            <g id="Mail" transform="translate(522.000000, 671.000000)">
                <path d="M78.3,0.2 L9.7,0.2 C4.7,0.2 0.7,4.2 0.7,9.2 L0.7,47.7 C0.7,52.7 4.7,56.7 9.7,56.7 L78.3,56.7 C83.3,56.7 87.3,52.7 87.3,47.7 L87.3,9.2 C87.3,4.3 83.3,0.2 78.3,0.2 Z M59.9,26.6 L83,7.7 C83.2,8.2 83.3,8.7 83.3,9.3 L83.3,47.8 C83.3,48.3 83.2,48.7 83.1,49.2 L59.9,26.6 Z M78.3,4.2 C79,4.2 79.7,4.4 80.3,4.6 L44,34.4 L7.7,4.7 C8.3,4.4 9,4.3 9.7,4.3 L78.3,4.3 L78.3,4.2 Z M4.9,49.2 C4.8,48.8 4.7,48.3 4.7,47.8 L4.7,9.2 C4.7,8.6 4.8,8.1 5,7.6 L28.1,26.5 L4.9,49.2 Z M9.7,52.8 C8.9,52.8 8.2,52.6 7.5,52.3 L31.2,29.2 L44,39.6 L56.8,29.1 L80.5,52.2 C79.8,52.5 79.1,52.7 78.3,52.7 L9.7,52.8 L9.7,52.8 Z" id="Shape"></path>
            </g>
        </g>
    </g>
</svg>